<?xml version="1.0" encoding="UTF-8"?>
<!-- Created with Inkscape (http://www.inkscape.org/) -->
<svg width="210mm" height="297mm" version="1.1" viewBox="0 0 210 297" xmlns="http://www.w3.org/2000/svg" xmlns:cc="http://creativecommons.org/ns#" xmlns:dc="http://purl.org/dc/elements/1.1/" xmlns:rdf="http://www.w3.org/1999/02/22-rdf-syntax-ns#">
 <metadata>
  <rdf:RDF>
   <cc:Work rdf:about="">
    <dc:format>image/svg+xml</dc:format>
    <dc:type rdf:resource="http://purl.org/dc/dcmitype/StillImage"/>
    <dc:title/>
   </cc:Work>
  </rdf:RDF>
 </metadata>
 <g>
  <path d="m109.58 74.557c-0.51263 0-0.92604 0.10749-1.2402 0.32246s-0.57878 0.48783-0.79375 0.81856-0.39688 0.69453-0.5457 1.0914c-0.1323 0.38034-0.28112 0.74414-0.44649 1.0914-0.0992 0.19844-0.26458 0.339-0.49609 0.42168-0.23151 0.06615-0.50436 0.13229-0.81855 0.19844-0.15884 0.0353-0.32319 0.07873-0.49145 0.12816-0.0293-0.05747-0.058-0.11543-0.092-0.17053-0.11859-0.16018-0.24715-0.29004-0.38551-0.39016-0.13835-0.12013-0.28681-0.18035-0.44493-0.18035h-0.82993c-0.53363 0-1.0576 0.09006-1.5715 0.27027-0.53363 0.16018-1.0377 0.42042-1.512 0.78083-0.29647-0.48054-0.57299-0.88112-0.82992-1.2015-0.25694-0.32036-0.52377-0.57066-0.80047-0.75086-0.2767-0.1802-0.57312-0.30012-0.88935-0.36018-0.33599-0.08009-0.73139-0.11989-1.186-0.11989-0.90916 0-1.8775 0.10996-2.9052 0.33021-1.0278 0.20023-2.0752 0.47042-3.1424 0.8108-1.087 0.34038-2.1544 0.73101-3.2019 1.1715-1.0673 0.46052-2.0754 0.93074-3.0241 1.4113-0.96846 0.48054-1.8577 0.95128-2.6681 1.4118-0.83011 0.48054-1.5316 0.92092-2.1048 1.3214-1.8381 1.3215-3.1722 2.7431-4.0023 4.2649-0.84987 1.5217-1.2749 3.0036-1.2749 4.4452 0 1.0812 0.26683 2.0421 0.80047 2.883 0.53364 0.84095 1.3535 1.5918 2.4603 2.2526 1.1068 0.66074 2.5103 1.2315 4.2101 1.712 1.68 0.50056 3.686 0.93099 6.0182 1.2914-2.9251 1.0212-5.5735 2.0522-7.9452 3.0934-2.3915 1.0612-4.4374 2.2027-6.1371 3.4241-1.6997 1.2214-3.014 2.543-3.9429 3.9646-0.92893 1.4216-1.3932 3.0234-1.3932 4.8054 0 1.0412 0.22703 1.9219 0.68161 2.6427 0.45458 0.74084 1.0673 1.3315 1.8381 1.772 0.75105 0.46052 1.6209 0.79093 2.6091 0.99115 0.96846 0.20023 1.9766 0.30024 3.0241 0.30024 0.83011 0 1.6403-0.0398 2.4309-0.11989 0.79058-0.0801 1.611-0.21047 2.4608-0.39067 0.83011-0.16018 1.7194-0.38011 2.6681-0.66042 0.92893-0.2603 1.9564-0.59071 3.083-0.99116 0.75105-0.26029 1.3638-0.47079 1.8381-0.63097 0.45458-0.14015 0.83008-0.25012 1.1265-0.33021 0.2767-0.0801 0.51394-0.13036 0.71158-0.15038 0.17788-0.02 0.36563-0.03 0.56327-0.03 0.41505 0 0.88953 0.0199 1.4232 0.0599 0.51388 0.0601 0.93886 0.0904 1.2749 0.0904 0.35576 0 0.69146-0.14033 1.0077-0.42065 0.29647-0.26029 0.5735-0.5907 0.83044-0.99115 0.25694-0.40046 0.47428-0.83088 0.65216-1.2914 0.0494-0.12788 0.08847-0.2426 0.13178-0.36276 0.01651 0.14605 0.041 0.2961 0.07545 0.45113 0.08268 0.29766 0.19017 0.57051 0.32246 0.81856 0.14883 0.26458 0.33073 0.47955 0.5457 0.64492 0.21497 0.16536 0.47129 0.24804 0.76895 0.24804 0.42995 0 0.83509-0.14056 1.2154-0.42168 0.39688-0.26458 0.74414-0.58704 1.0418-0.96738 0.29766-0.38034 0.55397-0.78548 0.76895-1.2154 0.21497-0.42995 0.3638-0.80202 0.44648-1.1162 0.24805-0.95911 0.45475-1.8273 0.62012-2.6045 0.16536-0.79375 0.33073-1.5792 0.49609-2.3564 0.16537-0.79375 0.339-1.6206 0.5209-2.4805 0.19844-0.8599 0.46302-1.8604 0.79375-3.0014 0.0661-0.23151 0.28939-0.37207 0.66973-0.42168l0.69453-0.0992c1.9348-0.38034 3.8943-0.78548 5.8787-1.2154 1.9844-0.42995 3.9274-0.95911 5.8291-1.5875 1.9017-0.62839 3.729-1.3973 5.4818-2.3068 1.7529-0.92604 3.3652-2.067 4.8369-3.423 0.52916-0.47956 1.0004-1.017 1.4139-1.6123 0.42995-0.59531 0.71107-1.2402 0.84336-1.9348l0.17363-0.86816c0.14883-0.71107 0.22325-1.3973 0.22325-2.0588 0-1.2898-0.32246-2.4309-0.96739-3.423-0.62838-1.0087-1.4469-1.8769-2.4557-2.6045-0.99219-0.74414-2.1167-1.3477-3.3734-1.8107-1.2402-0.46302-2.4805-0.81029-3.7207-1.0418-0.62839-0.11576-1.571-0.24805-2.8277-0.39688-1.2402-0.14883-2.712-0.24805-4.4152-0.29766-0.11575-0.28112-0.24805-0.58704-0.39687-0.91777-0.14883-0.34727-0.33073-0.66973-0.54571-0.96738-0.19843-0.29766-0.43821-0.5457-0.71933-0.74414-0.28112-0.19844-0.60358-0.29766-0.96739-0.29766zm-14.886 7.6259c0.05929 0 0.26694 0.01 0.6227 0.02997 0.33599 0.04005 0.73139 0.08036 1.186 0.12041l1.9565 0.20981c-0.57317 2.2826-1.1364 4.5452-1.6898 6.7877-0.57317 2.2626-1.2349 4.6257-1.9859 7.0885-0.2767-0.0801-0.7119-0.18062-1.3048-0.30076-0.6127-0.12013-1.2846-0.24999-2.0159-0.39015-0.73128-0.12014-1.5022-0.25052-2.3125-0.39068-0.81034-0.12013-1.5613-0.24005-2.2531-0.36018-0.71152-0.12014-1.3243-0.23062-1.8381-0.33073-0.53364-0.10011-0.89893-0.16976-1.0966-0.2098-1.3242-0.32037-2.4017-0.78116-3.2318-1.3818-0.83011-0.58065-1.2449-1.2713-1.2449-2.0722 0-0.48054 0.10867-0.95128 0.32608-1.4118 0.21741-0.46052 0.49393-0.90089 0.82992-1.3214 0.33599-0.40045 0.71149-0.77066 1.1265-1.111 0.41505-0.34038 0.81045-0.63099 1.186-0.87126 1.008-0.54061 2.0355-1.0511 3.083-1.5317 1.0475-0.46052 2.0852-0.87104 3.113-1.2314 1.008-0.34038 1.9865-0.63048 2.9352-0.87075 0.94869-0.22025 1.818-0.37053 2.6086-0.45062zm21.236 0.13798c0.92605 0 1.8686 0.03307 2.8277 0.09922 0.95911 0.06615 1.8769 0.21497 2.7533 0.44648 0.87643 0.23151 1.6867 0.57878 2.4309 1.0418 0.74414 0.46302 1.3643 1.0997 1.8604 1.91 0.13229 0.26458 0.24805 0.56224 0.34726 0.89297 0.11576 0.31419 0.17364 0.678 0.17364 1.0914 0 0.69453-0.27285 1.3477-0.81856 1.9596-0.5457 0.61185-1.2733 1.2237-2.1828 1.8355-0.8599 0.57878-1.8438 1.1245-2.9518 1.6371-1.1079 0.51263-2.2738 0.99219-3.4975 1.4387-1.2072 0.44649-2.4226 0.85163-3.6463 1.2154-1.2237 0.34727-2.373 0.63666-3.4478 0.86817-0.39687 0.0827-0.81029 0.16536-1.2402 0.24804-0.42995 0.0827-0.83509 0.1571-1.2154 0.22325-0.3638 0.0661-0.678 0.12402-0.94258 0.17363-0.26458 0.0331-0.42168 0.0496-0.47129 0.0496-0.0827 0-0.14056-0.0248-0.17363-0.0744-0.0165-0.0661-0.0248-0.14056-0.0248-0.22324 0-0.0661 0.0165-0.17363 0.0496-0.32246 0.0331-0.16536 0.0744-0.339 0.12402-0.5209 0.0496-0.19844 0.0992-0.38034 0.14883-0.5457 0.0661-0.1819 0.11576-0.33073 0.14883-0.44649 0.11575-0.42994 0.28112-0.97565 0.49609-1.6371 0.23152-0.678 0.47956-1.3973 0.74415-2.158 0.26458-0.77721 0.53743-1.571 0.81855-2.3812 0.29766-0.81029 0.57878-1.5792 0.84336-2.3068 0.26458-0.7276 0.51263-1.3808 0.74414-1.9596 0.23151-0.59531 0.41341-1.0583 0.5457-1.3891 0.0331-0.08268 0.0744-0.1819 0.12403-0.29766 0.0661-0.11576 0.14056-0.19844 0.22324-0.24805 0.16536-0.09922 0.47956-0.1819 0.94258-0.24805 0.47955-0.08268 0.99219-0.14883 1.5379-0.19844 0.56224-0.04961 1.0914-0.09095 1.5875-0.12402 0.51263-0.03307 0.89297-0.04961 1.141-0.04961zm-11.948 1.8324c0.18526 0.03403 0.38821 0.05271 0.61236 0.05271 0.13229 0 0.23978 0.01654 0.32246 0.04961 0.0827 0.03307 0.12403 0.11576 0.12403 0.24805 0 0.08268-8e-3 0.14883-0.0248 0.19844-0.33073 1.3229-0.7028 2.6045-1.1162 3.8447s-0.82683 2.4474-1.2402 3.6215c-0.39687 1.1741-0.78548 2.3151-1.1658 3.4231-0.3638 1.0914-0.67799 2.1415-0.94258 3.1502-0.33072 1.2568-0.62011 2.3895-0.86816 3.3982-0.24805 0.99219-0.48783 1.9678-0.71934 2.927l-0.96738 3.9688c-0.16536 0.67799-0.33073 1.2485-0.49609 1.7115-0.16536 0.44648-0.32246 0.83509-0.47129 1.1658-0.12685 0.28188-0.24432 0.52736-0.35915 0.76119-0.01608-0.23716-0.0325-0.48065-0.04857-0.75757-0.03953-0.32037-0.06912-0.62092-0.08889-0.90124-0.01976-0.28032-0.02946-0.4505-0.02946-0.51056l0.82992-3.4835c0.41506-1.6418 0.86963-3.384 1.3637-5.226 0.47434-1.8221 0.97841-3.6741 1.512-5.5563 0.53365-1.8821 1.0872-3.7646 1.6604-5.6467 0.57317-1.8621 1.1364-3.644 1.6898-5.3459 0.14784-0.36261 0.28764-0.72725 0.42323-1.093zm-10.652 17.251c-0.21741 0.74083-0.42454 1.4519-0.62218 2.1327-0.21741 0.68077-0.40516 1.3013-0.56327 1.8619-0.17788 0.56063-0.32635 1.0413-0.44493 1.4418-0.11859 0.42047-0.19767 0.73098-0.2372 0.93121-0.13835 0.1802-0.27661 0.46034-0.41496 0.84077-0.15812 0.38043-0.30658 0.77106-0.44494 1.1715-0.13835 0.42047-0.25671 0.80063-0.35553 1.141-0.11859 0.34039-0.20736 0.56083-0.26665 0.66094-0.29647 0.42048-0.89951 0.86085-1.8087 1.3214-0.90916 0.46052-1.9469 0.88099-3.113 1.2614-1.1661 0.38043-2.3717 0.69094-3.6168 0.93121-1.2452 0.2603-2.362 0.39016-3.3502 0.39016-0.71152 0-1.3044-0.0702-1.7787-0.21032-0.49411-0.14016-0.88951-0.33024-1.186-0.57051-0.29647-0.24027-0.5138-0.51047-0.65216-0.8108-0.13835-0.30034-0.20722-0.6009-0.20722-0.90124 0-0.46052 0.11836-0.93074 0.35553-1.4113 0.21741-0.46051 0.51383-0.91135 0.88935-1.3518 0.35576-0.42048 0.77106-0.82053 1.2454-1.201 0.45458-0.36041 0.91885-0.67092 1.3932-0.93121h-0.02946c1.3242-0.66075 2.6584-1.3216 4.0023-1.9823 1.3242-0.64072 2.6385-1.2513 3.9429-1.8319 1.2847-0.58065 2.5397-1.1216 3.7651-1.6221 1.2254-0.48054 2.3912-0.90102 3.498-1.2614z"/>
  <flowRoot fill="black" font-family="sans-serif" font-size="40px" letter-spacing="0px" word-spacing="0px" style="line-height:1.25" xml:space="preserve"><flowRegion><rect x="297.14" y="213.95" width="200" height="111.43"/></flowRegion><flowPara/></flowRoot>
  <flowRoot fill="black" font-family="sans-serif" font-size="40px" letter-spacing="0px" word-spacing="0px" style="line-height:1.25" xml:space="preserve"><flowRegion><rect x="280" y="191.09" width="22.857" height="45.714"/></flowRegion><flowPara/></flowRoot>
 </g>
</svg>
