<?xml version="1.0" encoding="UTF-8" standalone="no"?>
<svg
   xmlns:dc="http://purl.org/dc/elements/1.1/"
   xmlns:cc="http://creativecommons.org/ns#"
   xmlns:rdf="http://www.w3.org/1999/02/22-rdf-syntax-ns#"
   xmlns:svg="http://www.w3.org/2000/svg"
   xmlns="http://www.w3.org/2000/svg"
   width="435"
   height="287"
   viewBox="0 0 115.09388 75.935427"
   version="1.1"
   id="svg8">
  <defs
     id="defs2" />
  <metadata
     id="metadata5">
    <rdf:RDF>
      <cc:Work
         rdf:about="">
        <dc:format>image/svg+xml</dc:format>
        <dc:type
           rdf:resource="http://purl.org/dc/dcmitype/StillImage" />
        <dc:title></dc:title>
      </cc:Work>
    </rdf:RDF>
  </metadata>
  <g
     transform="translate(-65.84434,-72.214373)"
     id="layer1">
    <path
       style="font-style:normal;font-variant:normal;font-weight:normal;font-stretch:normal;font-size:192px;line-height:1.25;font-family:'mv boli';-inkscape-font-specification:'mv boli';letter-spacing:0px;word-spacing:0px;fill:#000000;fill-opacity:1;stroke:none;stroke-width:0.53664756"
       d="m 142.94582,74.557332 c -0.92355,0 -1.66835,0.169602 -2.2344,0.508807 -0.56604,0.339205 -1.04272,0.769734 -1.43001,1.291587 -0.38729,0.521853 -0.71502,1.095891 -0.98313,1.722115 -0.23836,0.600132 -0.50647,1.17417 -0.8044,1.722117 -0.17872,0.313111 -0.47667,0.534899 -0.89375,0.665362 -0.41709,0.104377 -0.90866,0.208741 -1.4747,0.313112 -0.28617,0.0557 -0.58226,0.124227 -0.8854,0.202216 -0.0528,-0.09068 -0.10449,-0.182131 -0.16574,-0.26908 -0.21365,-0.252748 -0.44527,-0.457657 -0.69454,-0.615624 -0.24925,-0.189558 -0.51671,-0.284573 -0.80158,-0.284573 h -1.4952 c -0.96139,0 -1.90537,0.142104 -2.83117,0.426454 -0.96139,0.252744 -1.86952,0.66338 -2.7241,1.232063 -0.53412,-0.758244 -1.03229,-1.390302 -1.49519,-1.895797 -0.4629,-0.505491 -0.94362,-0.90043 -1.44212,-1.18477 -0.49851,-0.284339 -1.03254,-0.473551 -1.60226,-0.568331 -0.60532,-0.126373 -1.31767,-0.18917 -2.13664,-0.18917 -1.63795,0 -3.3825,0.173511 -5.23409,0.521036 -1.85159,0.315934 -3.73861,0.742271 -5.66142,1.279358 -1.95842,0.537086 -3.88128,1.153445 -5.76848,1.848499 -1.92281,0.72665 -3.739055,1.468604 -5.448216,2.226848 -1.744769,0.758241 -3.346852,1.501012 -4.806761,2.227658 -1.495517,0.758244 -2.759348,1.453102 -3.791968,2.08497 -3.311502,2.085164 -5.715085,4.328358 -7.210601,6.72946 -1.531125,2.401096 -2.296781,4.739308 -2.296781,7.014031 0,1.70604 0.480721,3.22216 1.442121,4.54909 0.961406,1.32692 2.438476,2.51172 4.432496,3.55431 1.994022,1.04258 4.522617,1.94317 7.584866,2.70141 3.026641,0.78983 6.640749,1.469 10.842434,2.03767 -5.269913,1.61127 -10.041228,3.2381 -14.314135,4.88095 -4.308514,1.67446 -7.994322,3.47563 -11.056572,5.40283 -3.06225,1.92718 -5.42998,4.01258 -7.103536,6.25571 -1.673554,2.24314 -2.509976,4.77055 -2.509976,7.58236 0,1.64286 0.409013,3.03257 1.22799,4.16993 0.81897,1.16896 1.922873,2.10094 3.311568,2.796 1.353087,0.72664 2.920248,1.24799 4.700624,1.56392 1.744769,0.31594 3.56102,0.47374 5.44822,0.47374 1.495516,0 2.955125,-0.0628 4.379428,-0.18917 1.424303,-0.12639 2.902302,-0.3321 4.433426,-0.61643 1.495518,-0.25275 3.097595,-0.59977 4.806756,-1.04207 1.673559,-0.41073 3.524722,-0.93207 5.554357,-1.56394 1.35309,-0.41071 2.45699,-0.74285 3.31157,-0.9956 0.81897,-0.22114 1.49547,-0.39466 2.02958,-0.52103 0.49851,-0.12639 0.92591,-0.2057 1.28199,-0.23729 0.32047,-0.0315 0.65871,-0.0473 1.01479,-0.0473 0.74776,0 1.60257,0.0314 2.56398,0.0945 0.92579,0.0948 1.69145,0.14264 2.29678,0.14264 0.64094,0 1.24573,-0.22142 1.81545,-0.66373 0.53411,-0.41071 1.03322,-0.93206 1.49612,-1.56393 0.4629,-0.63188 0.85445,-1.31103 1.17492,-2.03768 0.089,-0.20178 0.15939,-0.38279 0.23741,-0.57239 0.0297,0.23045 0.0739,0.46721 0.13593,0.71183 0.14895,0.46967 0.34261,0.9002 0.58094,1.29159 0.26813,0.41748 0.59584,0.75668 0.98314,1.01761 0.38729,0.26092 0.84907,0.39138 1.38533,0.39138 0.77459,0 1.5045,-0.22178 2.18971,-0.66536 0.71501,-0.41748 1.34064,-0.92628 1.8769,-1.52642 0.53626,-0.60013 0.99803,-1.23939 1.38534,-1.91781 0.38729,-0.67841 0.65542,-1.26549 0.80437,-1.76125 0.44689,-1.51337 0.81928,-2.88324 1.11721,-4.10959 0.29791,-1.25245 0.59584,-2.49185 0.89375,-3.71821 0.29793,-1.25245 0.61075,-2.55708 0.93846,-3.91389 0.35751,-1.35682 0.83417,-2.93543 1.43001,-4.73582 0.11909,-0.3653 0.52137,-0.58708 1.20659,-0.66536 l 1.25126,-0.15653 c 3.48566,-0.60013 7.01601,-1.2394 10.59105,-1.91781 3.57505,-0.67841 7.07561,-1.51337 10.50171,-2.5049 3.42607,-0.99152 6.7181,-2.20482 9.87604,-3.63993 3.15797,-1.46119 6.06268,-3.26157 8.71418,-5.40117 0.95334,-0.75669 1.80241,-1.6047 2.54721,-2.54404 0.7746,-0.93933 1.28106,-1.956947 1.51939,-3.052838 l 0.31282,-1.369865 c 0.26813,-1.121984 0.4022,-2.20483 0.4022,-3.248536 0,-2.035228 -0.58094,-3.835622 -1.74284,-5.40118 -1.13209,-1.591653 -2.60681,-2.961517 -4.42411,-4.109594 -1.78753,-1.17417 -3.81339,-2.126553 -6.07758,-2.857146 -2.2344,-0.730595 -4.46881,-1.278541 -6.70321,-1.643838 -1.1321,-0.182648 -2.83023,-0.39139 -5.09444,-0.626223 -2.2344,-0.234834 -4.88588,-0.391391 -7.95447,-0.469668 -0.20853,-0.443575 -0.44688,-0.92629 -0.715,-1.448143 -0.26813,-0.547947 -0.59584,-1.056752 -0.98315,-1.526421 -0.35749,-0.469668 -0.78947,-0.861058 -1.29594,-1.174169 -0.50646,-0.313113 -1.08741,-0.469669 -1.74285,-0.469669 z m -26.81841,12.032791 c 0.10682,0 0.48093,0.01578 1.12186,0.04729 0.60533,0.0632 1.31768,0.126799 2.13665,0.189989 l 3.52477,0.33105 c -1.03262,3.601647 -2.04737,7.171762 -3.04437,10.710223 -1.03262,3.570055 -2.22476,7.298795 -3.57784,11.184775 -0.49851,-0.12638 -1.28255,-0.28499 -2.35078,-0.47456 -1.10383,-0.18955 -2.31436,-0.39446 -3.63184,-0.61561 -1.31747,-0.18957 -2.70632,-0.3953 -4.16623,-0.61645 -1.4599,-0.18955 -2.8129,-0.37877 -4.05916,-0.56833 -1.28187,-0.18956 -2.385771,-0.36389 -3.31157,-0.52185 -0.961404,-0.15796 -1.619508,-0.26786 -1.975582,-0.33104 -2.385709,-0.50551 -4.326966,-1.23258 -5.822484,-2.18038 -1.495517,-0.91621 -2.242778,-2.006 -2.242778,-3.26974 0,-0.758236 0.19578,-1.501009 0.587461,-2.227657 0.391682,-0.72665 0.889858,-1.421503 1.495189,-2.084966 0.605326,-0.631868 1.28182,-1.216014 2.02958,-1.753102 0.747756,-0.537087 1.460106,-0.995637 2.136647,-1.374757 1.815985,-0.853022 3.667151,-1.658591 5.554357,-2.416832 1.8872,-0.726649 3.75675,-1.374406 5.60834,-1.943089 1.81599,-0.537087 3.57893,-0.994818 5.28809,-1.373939 1.70916,-0.347529 3.2754,-0.584651 4.69969,-0.711027 z m 38.25855,0.217714 c 1.66837,0 3.3665,0.05218 5.09445,0.156558 1.72793,0.104377 3.3814,0.339204 4.96037,0.704503 1.57897,0.365296 3.03879,0.913243 4.37943,1.643837 1.34064,0.730594 2.45785,1.735161 3.3516,3.013701 0.23833,0.417484 0.44689,0.887151 0.62562,1.409004 0.20856,0.495761 0.31283,1.069799 0.31283,1.722115 0,1.095893 -0.49156,2.126553 -1.47471,3.091981 -0.98313,0.965429 -2.29398,1.930854 -3.93255,2.896284 -1.54919,0.91324 -3.3218,1.7743 -5.31788,2.58317 -1.99606,0.80887 -4.0964,1.56556 -6.30101,2.27006 -2.17482,0.70451 -4.36453,1.34377 -6.56915,1.91781 -2.20461,0.54795 -4.27515,1.00458 -6.21163,1.36987 -0.715,0.13049 -1.45982,0.26092 -2.2344,0.39138 -0.77459,0.13049 -1.50449,0.24789 -2.18971,0.35227 -0.65542,0.10429 -1.22148,0.19568 -1.69815,0.27396 -0.47667,0.0522 -0.7597,0.0783 -0.84908,0.0783 -0.14899,0 -0.25323,-0.0391 -0.31281,-0.1174 -0.0297,-0.1043 -0.0447,-0.22179 -0.0447,-0.35225 0,-0.10429 0.0297,-0.27396 0.0894,-0.5088 0.0596,-0.26092 0.13404,-0.5349 0.22344,-0.82192 0.0894,-0.31312 0.17872,-0.60014 0.26813,-0.86105 0.11908,-0.28702 0.20855,-0.52186 0.26813,-0.70452 0.20854,-0.67839 0.50647,-1.53946 0.89375,-2.58315 0.41711,-1.06981 0.86398,-2.20484 1.34066,-3.4051 0.47667,-1.22636 0.96824,-2.478803 1.4747,-3.757342 0.53626,-1.278541 1.04273,-2.49185 1.5194,-3.639926 0.47666,-1.148079 0.92355,-2.178739 1.34064,-3.091982 0.41708,-0.939335 0.74479,-1.669929 0.98313,-2.191782 0.0596,-0.13046 0.13404,-0.287019 0.22345,-0.469668 0.11908,-0.18265 0.25323,-0.313112 0.40219,-0.39139 0.29791,-0.156558 0.86397,-0.287019 1.69815,-0.39139 0.86395,-0.13046 1.78752,-0.234834 2.77065,-0.313113 1.01293,-0.07828 1.96627,-0.143508 2.86004,-0.195694 0.92355,-0.05218 1.60877,-0.07828 2.05564,-0.07828 z m -21.52566,2.891391 c 0.33376,0.05369 0.6994,0.08317 1.10323,0.08317 0.23833,0 0.43198,0.0261 0.58094,0.07828 0.14899,0.05218 0.22345,0.182648 0.22345,0.39139 0,0.13046 -0.0144,0.234834 -0.0447,0.313113 -0.59584,2.087412 -1.26616,4.109593 -2.01096,6.066542 -0.7448,1.956949 -1.48961,3.861717 -2.23441,5.714287 -0.715,1.85259 -1.41512,3.65297 -2.10034,5.40119 -0.65542,1.72211 -1.22146,3.379 -1.69815,4.97064 -0.59582,1.98305 -1.11719,3.7704 -1.56407,5.36204 -0.44688,1.56557 -0.87887,3.10503 -1.29596,4.61842 l -1.74283,6.26223 c -0.29792,1.0698 -0.59584,1.97 -0.89376,2.70059 -0.29792,0.70449 -0.58095,1.31768 -0.84908,1.83953 -0.22852,0.44478 -0.44015,0.83212 -0.64704,1.20107 -0.029,-0.37421 -0.0585,-0.75841 -0.0875,-1.19536 -0.0712,-0.5055 -0.12453,-0.97974 -0.16015,-1.42205 -0.0356,-0.44232 -0.0531,-0.71084 -0.0531,-0.80561 l 1.49518,-5.49658 c 0.74777,-2.59066 1.56673,-5.33951 2.45692,-8.2461 0.85458,-2.87501 1.7627,-5.79736 2.7241,-8.76714 0.96142,-2.96977 1.95869,-5.94004 2.99131,-8.90982 1.03263,-2.938189 2.04736,-5.749833 3.04438,-8.435269 0.26635,-0.572156 0.51821,-1.147513 0.76249,-1.724562 z m -19.1898,27.220352 c -0.39168,1.16895 -0.76485,2.29097 -1.12092,3.36513 -0.39169,1.07418 -0.72993,2.05326 -1.01479,2.93789 -0.32047,0.88461 -0.58795,1.64308 -0.80159,2.27495 -0.21365,0.66345 -0.35612,1.1534 -0.42734,1.46934 -0.24925,0.28433 -0.49833,0.72636 -0.74759,1.32664 -0.28486,0.60028 -0.55234,1.21664 -0.80159,1.84851 -0.24925,0.66345 -0.46249,1.2633 -0.64053,1.80038 -0.21365,0.5371 -0.37357,0.88493 -0.4804,1.04289 -0.53411,0.66347 -1.62055,1.35833 -3.2585,2.08498 -1.63795,0.72664 -3.50751,1.3901 -5.60835,1.99037 -2.100842,0.60028 -4.272801,1.09023 -6.516075,1.46935 -2.243277,0.41072 -4.255302,0.61563 -6.03568,0.61563 -1.281872,0 -2.349923,-0.11077 -3.204507,-0.33187 -0.890186,-0.22115 -1.602535,-0.52108 -2.136646,-0.9002 -0.534112,-0.37911 -0.925669,-0.80546 -1.174922,-1.27935 -0.249256,-0.4739 -0.373334,-0.94815 -0.373334,-1.42205 0,-0.72665 0.213239,-1.4686 0.640529,-2.22686 0.391687,-0.72663 0.925713,-1.438 1.602254,-2.13306 0.640938,-0.66347 1.389132,-1.29471 2.24371,-1.89498 0.818978,-0.56869 1.6554,-1.05864 2.509982,-1.46935 h -0.05308 c 2.385709,-1.04259 4.789291,-2.08527 7.210601,-3.12786 2.385707,-1.01098 4.75344,-1.97436 7.103548,-2.89058 2.31449,-0.9162 4.5756,-1.76969 6.78327,-2.55952 2.20767,-0.75823 4.30792,-1.4217 6.30195,-1.99038 z"
       id="flowRoot4831" />
    <flowRoot
       xml:space="preserve"
       id="flowRoot4839"
       style="font-style:normal;font-weight:normal;font-size:40px;line-height:1.25;font-family:sans-serif;letter-spacing:0px;word-spacing:0px;fill:#000000;fill-opacity:1;stroke:none"><flowRegion
         id="flowRegion4841"><rect
           id="rect4843"
           width="200"
           height="111.42857"
           x="297.14285"
           y="213.94826" /></flowRegion><flowPara
         id="flowPara4845" /></flowRoot>    <flowRoot
       xml:space="preserve"
       id="flowRoot4847"
       style="font-style:normal;font-weight:normal;font-size:40px;line-height:1.25;font-family:sans-serif;letter-spacing:0px;word-spacing:0px;fill:#000000;fill-opacity:1;stroke:none"><flowRegion
         id="flowRegion4849"><rect
           id="rect4851"
           width="22.857143"
           height="45.714287"
           x="280"
           y="191.09111" /></flowRegion><flowPara
         id="flowPara4853" /></flowRoot>  </g>
</svg>
